<svg width="55" height="55" viewBox="0 0 55 55" fill="none" xmlns="http://www.w3.org/2000/svg">
<g clip-path="url(#clip0_73_133)">
<path d="M29.355 32.0347C29.7842 32.0347 30.1995 31.8832 30.528 31.607C31.7203 30.6052 42.175 21.5753 42.175 12.8045C42.1752 5.72422 36.4353 -0.0155029 29.355 -0.0155029C22.2746 -0.0155029 16.5349 5.72422 16.5349 12.8046C16.5349 21.5753 26.9897 30.6052 28.1819 31.6061C28.5101 31.883 28.9257 32.0348 29.355 32.0347ZM18.3664 12.8046C18.3664 6.73568 23.2861 1.81595 29.355 1.81595C35.4239 1.81595 40.3436 6.73568 40.3436 12.8046C40.3436 19.254 33.4336 26.7757 29.3596 30.2032C25.2764 26.7757 18.3664 19.254 18.3664 12.8046Z" fill="#BFCD30"/>
<path d="M37.5964 12.8045C37.5964 8.2529 33.9066 4.56305 29.355 4.56305C24.8033 4.56305 21.1135 8.2529 21.1135 12.8045C21.1135 17.3562 24.8033 21.046 29.355 21.046C33.9043 21.0405 37.5909 17.3539 37.5964 12.8045ZM29.355 19.2146C25.8148 19.2146 22.9449 16.3447 22.9449 12.8045C22.9449 9.26437 25.8148 6.3945 29.355 6.3945C32.8951 6.3945 35.765 9.26437 35.765 12.8045C35.7609 16.3431 32.8935 19.2105 29.355 19.2146Z" fill="#BFCD30"/>
<path d="M17.4507 37.529C17.4507 37.0232 17.0407 36.6133 16.535 36.6133C16.0292 36.6133 15.6193 37.0233 15.6193 37.529C15.6249 42.5841 19.7215 46.6807 24.7765 46.6862C25.2823 46.6862 25.6922 46.2762 25.6922 45.7705C25.6922 45.2647 25.2822 44.8548 24.7765 44.8548C20.7324 44.8502 17.4551 41.573 17.4507 37.529Z" fill="#1E196B"/>
<path d="M47.2116 21.046C44.6628 21.0385 42.2728 22.2829 40.8174 24.3753C39.362 26.4677 39.0269 29.1414 39.9206 31.5283L36.8383 33.1958C36.5231 32.3166 36.1126 31.4746 35.614 30.6848C35.444 30.398 35.1316 30.2262 34.7984 30.2363C34.4651 30.2465 34.1638 30.437 34.0116 30.7336C33.8594 31.0303 33.8804 31.3861 34.0666 31.6628C36.5083 35.5297 36.2998 40.5048 33.543 44.1538C30.7861 47.8029 26.0576 49.363 21.6706 48.0708C17.2836 46.7787 14.1555 42.9045 13.8168 38.3437C13.4782 33.7829 15.9996 29.4892 20.1476 27.5633C20.4448 27.4251 20.6458 27.1388 20.6747 26.8123C20.7036 26.4857 20.5561 26.1686 20.2878 25.9804C20.0196 25.7921 19.6711 25.7612 19.3739 25.8994C18.2409 26.4271 17.1918 27.1189 16.2604 27.9524L11.4831 21.1285C14.1853 18.7152 14.5541 14.6203 12.3264 11.7631C10.0987 8.90586 6.03736 8.2649 3.038 10.2971C0.0386329 12.3293 -0.871803 16.3388 0.955833 19.4669C2.78347 22.595 6.72338 23.7709 9.96647 22.1559L14.9598 29.2985C13.0253 31.6054 11.9622 34.5184 11.9563 37.529C11.9583 39.4886 12.413 41.4213 13.2851 43.1762L10.4179 44.9967C8.32965 42.6934 4.82036 42.3853 2.36278 44.2896C-0.094905 46.1938 -0.673023 49.6687 1.03569 52.266C2.74452 54.8634 6.16446 55.708 8.88595 54.205C11.6074 52.7019 12.7137 49.3572 11.4251 46.5278L14.2025 44.7633C16.4273 48.0291 20.0374 50.0824 23.9817 50.3253C27.9259 50.5681 31.7607 48.9732 34.3694 46.005L38.7365 48.4042C37.949 50.9063 39.1991 53.5962 41.6196 54.6073C44.0401 55.6183 46.8322 54.6171 48.0585 52.2983C49.2847 49.9795 48.5407 47.1081 46.3425 45.6768C44.1444 44.2453 41.2175 44.7261 39.5927 46.7854L35.4994 44.5355C37.3495 41.7275 38.0117 38.3008 37.3409 35.0055L40.7491 33.1622C42.8156 36.2466 46.7728 37.4423 50.2015 36.0181C53.6302 34.5939 55.5756 30.9463 54.8485 27.3055C54.1217 23.6644 50.9243 21.0439 47.2116 21.046ZM1.8834 16.0095C1.8834 13.2279 4.13827 10.9731 6.91987 10.9731C9.70147 10.9731 11.9563 13.2279 11.9563 16.0095C11.9563 18.7911 9.70147 21.046 6.91987 21.046C4.13957 21.043 1.88645 18.7898 1.8834 16.0095ZM6.00419 53.0963C3.72838 53.0963 1.88351 51.2514 1.88351 48.9756C1.88351 46.6998 3.72838 44.8548 6.00419 44.8548C8.28001 44.8548 10.1249 46.6997 10.1249 48.9756C10.1224 51.2503 8.27892 53.0938 6.00419 53.0963ZM43.5487 46.6863C45.3188 46.6863 46.7537 48.1212 46.7537 49.8913C46.7537 51.6613 45.3188 53.0963 43.5487 53.0963C41.7787 53.0963 40.3437 51.6613 40.3437 49.8913C40.3437 48.1212 41.7786 46.6863 43.5487 46.6863ZM47.2116 34.7819C43.9244 34.7819 41.2595 32.117 41.2595 28.8297C41.2595 25.5424 43.9244 22.8776 47.2116 22.8776C50.4989 22.8776 53.1638 25.5424 53.1638 28.8297C53.1597 32.1153 50.4972 34.7778 47.2116 34.7819Z" fill="#1E196B"/>
</g>
<defs>
<clipPath id="clip0_73_133">
<rect width="55" height="55" fill="white"/>
</clipPath>
</defs>
</svg>
