<svg width="60" height="60" viewBox="0 0 60 60" fill="none" xmlns="http://www.w3.org/2000/svg">
<rect width="60" height="60" fill="white"/>
<g clip-path="url(#clip0_73_112)">
<path d="M30.1094 26.8828H32.8438C33.7498 26.8828 34.4844 26.1483 34.4844 25.2422C34.4844 24.3361 33.7498 23.6016 32.8438 23.6016H30.1094C29.2033 23.6016 28.4688 24.3361 28.4688 25.2422C28.4688 26.1483 29.2033 26.8828 30.1094 26.8828Z" fill="#3A367E"/>
<path d="M23.1094 23.6016H20.375C19.4689 23.6016 18.7344 24.3361 18.7344 25.2422C18.7344 26.1483 19.4689 26.8828 20.375 26.8828H23.1094C24.0154 26.8828 24.75 26.1483 24.75 25.2422C24.75 24.3361 24.0154 23.6016 23.1094 23.6016Z" fill="#3A367E"/>
<path d="M39.8438 26.8828H42.5781C43.4842 26.8828 44.2188 26.1483 44.2188 25.2422C44.2188 24.3361 43.4842 23.6016 42.5781 23.6016H39.8438C38.9377 23.6016 38.2031 24.3361 38.2031 25.2422C38.2031 26.1483 38.9377 26.8828 39.8438 26.8828Z" fill="#BFCD30"/>
<path d="M13.375 30.9844H10.6406C9.73456 30.9844 9 31.7189 9 32.625C9 33.5311 9.73456 34.2656 10.6406 34.2656H13.375C14.2811 34.2656 15.0156 33.5311 15.0156 32.625C15.0156 31.7189 14.2811 30.9844 13.375 30.9844Z" fill="#3A367E"/>
<path d="M23.1094 30.9844H20.375C19.4689 30.9844 18.7344 31.7189 18.7344 32.625C18.7344 33.5311 19.4689 34.2656 20.375 34.2656H23.1094C24.0154 34.2656 24.75 33.5311 24.75 32.625C24.75 31.7189 24.0154 30.9844 23.1094 30.9844Z" fill="#3A367E"/>
<path d="M34.4844 32.625C34.4844 31.7189 33.7498 30.9844 32.8438 30.9844H30.1094C29.2033 30.9844 28.4688 31.7189 28.4688 32.625C28.4688 33.5311 29.2033 34.2656 30.1094 34.2656H32.8438C33.7498 34.2656 34.4844 33.5311 34.4844 32.625Z" fill="#BFCD30"/>
<path d="M13.375 38.3672H10.6406C9.73456 38.3672 9 39.1017 9 40.0078C9 40.9139 9.73456 41.6484 10.6406 41.6484H13.375C14.2811 41.6484 15.0156 40.9139 15.0156 40.0078C15.0156 39.1017 14.2811 38.3672 13.375 38.3672Z" fill="#BFCD30"/>
<path d="M23.1094 38.3672H20.375C19.4689 38.3672 18.7344 39.1017 18.7344 40.0078C18.7344 40.9139 19.4689 41.6484 20.375 41.6484H23.1094C24.0154 41.6484 24.75 40.9139 24.75 40.0078C24.75 39.1017 24.0154 38.3672 23.1094 38.3672Z" fill="#3A367E"/>
<path d="M51.2188 32.5239V11.2969C51.2188 7.97986 48.5201 5.28125 45.2031 5.28125H42.0312V3.64062C42.0312 2.73456 41.2967 2 40.3906 2C39.4846 2 38.75 2.73456 38.75 3.64062V5.28125H32.8438V3.64062C32.8438 2.73456 32.1092 2 31.2031 2C30.2971 2 29.5625 2.73456 29.5625 3.64062V5.28125H23.6562V3.64062C23.6562 2.73456 22.9217 2 22.0156 2C21.1096 2 20.375 2.73456 20.375 3.64062V5.28125H14.4688V3.64062C14.4688 2.73456 13.7342 2 12.8281 2C11.9221 2 11.1875 2.73456 11.1875 3.64062V5.28125H8.01562C4.69861 5.28125 2 7.97986 2 11.2969V44.1094C2 46.8233 4.20795 49.0312 6.92188 49.0312H31.4899C33.4114 54.2599 38.4412 58 44.3281 58C51.8668 58 58 51.8668 58 44.3281C58 39.3007 55.2719 34.899 51.2188 32.5239ZM5.28125 11.2969C5.28125 9.78914 6.50789 8.5625 8.01562 8.5625H11.1875V10.2031C11.1875 11.1092 11.9221 11.8438 12.8281 11.8438C13.7342 11.8438 14.4688 11.1092 14.4688 10.2031V8.5625H20.375V10.2031C20.375 11.1092 21.1096 11.8438 22.0156 11.8438C22.9217 11.8438 23.6562 11.1092 23.6562 10.2031V8.5625H29.5625V10.2031C29.5625 11.1092 30.2971 11.8438 31.2031 11.8438C32.1092 11.8438 32.8438 11.1092 32.8438 10.2031V8.5625H38.75V10.2031C38.75 11.1092 39.4846 11.8438 40.3906 11.8438C41.2967 11.8438 42.0312 11.1092 42.0312 10.2031V8.5625H45.2031C46.7109 8.5625 47.9375 9.78914 47.9375 11.2969V16.2188H5.28125V11.2969ZM6.92188 45.75C6.01723 45.75 5.28125 45.014 5.28125 44.1094V19.5H47.9375V31.1408C46.7872 30.8256 45.5771 30.6562 44.3281 30.6562C36.7895 30.6562 30.6562 36.7895 30.6562 44.3281C30.6562 44.8082 30.6814 45.2825 30.73 45.75H6.92188ZM44.3281 54.7188C38.5987 54.7188 33.9375 50.0575 33.9375 44.3281C33.9375 38.5987 38.5987 33.9375 44.3281 33.9375C50.0575 33.9375 54.7188 38.5987 54.7188 44.3281C54.7188 50.0575 50.0575 54.7188 44.3281 54.7188Z" fill="#3A367E"/>
<path d="M49.7969 42.6875H45.9688V38.8594C45.9688 37.9533 45.2342 37.2188 44.3281 37.2188C43.4221 37.2188 42.6875 37.9533 42.6875 38.8594V44.3281C42.6875 45.2342 43.4221 45.9688 44.3281 45.9688H49.7969C50.7029 45.9688 51.4375 45.2342 51.4375 44.3281C51.4375 43.4221 50.7029 42.6875 49.7969 42.6875Z" fill="#BFCD30"/>
</g>
<defs>
<clipPath id="clip0_73_112">
<rect width="56" height="56" fill="white" transform="translate(2 2)"/>
</clipPath>
</defs>
</svg>
