<svg width="36" height="30" viewBox="0 0 36 30" fill="none" xmlns="http://www.w3.org/2000/svg">
<path d="M23.4203 27.6906C21.4509 28.6853 20.577 28.6391 20.2926 28.5728C19.7773 28.4532 19.7376 28.2726 19.6718 27.9736C19.6226 27.7503 19.5483 27.4128 19.2216 27.221C18.8771 27.0188 18.4467 27.1093 18.1102 27.2106C17.3269 27.4466 16.7973 27.7956 16.3717 28.0761C15.9303 28.367 15.6387 28.5592 15.2289 28.5592C15.0299 28.5592 14.7621 28.2784 14.5777 27.8763C14.3038 27.2793 14.2718 26.5718 14.5062 26.2993C15.588 25.0422 14.6577 23.9611 14.0421 23.2456C13.6273 22.7636 13.1993 22.5167 12.7337 22.4908C12.0714 22.4527 11.5169 22.8851 11.1084 23.2648C10.6444 23.6962 10.3891 23.586 9.77238 23.3195C9.70017 23.2882 9.62668 23.2564 9.55158 23.2253C8.90173 22.9556 8.37261 23.1922 7.90583 23.4008C7.62882 23.5247 7.36726 23.6416 7.05542 23.6819C6.65196 23.7338 6.07891 22.9702 5.70057 22.4646C5.51777 22.2204 5.34507 21.9897 5.17568 21.8107C4.61299 21.2162 4.16525 21.3312 3.76533 21.5439C3.64636 21.6072 3.57704 21.6418 3.4824 21.6451C3.41583 21.6141 3.23868 21.4363 3.13438 21.1242C3.05222 20.8784 3.07697 20.7222 3.09665 20.6873C3.27351 20.5549 3.38423 20.3684 3.41688 20.1476C3.4764 19.7458 3.27831 19.2833 2.73311 18.5512C2.55864 18.317 2.22726 18.2686 1.99299 18.4429C1.75872 18.6175 1.7102 18.9488 1.88467 19.183C2.20279 19.6103 2.31217 19.8323 2.34969 19.9371C2.00696 20.2752 1.92289 20.8282 2.1279 21.45C2.33354 22.0738 2.82726 22.7032 3.46667 22.7032C3.8381 22.7032 4.09311 22.5676 4.26187 22.4779C4.27823 22.4693 4.29727 22.4591 4.31504 22.4501C4.33697 22.4681 4.36758 22.4958 4.40742 22.5379C4.53478 22.6726 4.68965 22.8795 4.85368 23.0986C5.44175 23.8845 6.17348 24.8628 7.19096 24.7311C7.65703 24.6709 8.03439 24.5022 8.33763 24.3666C8.76703 24.1746 8.936 24.1153 9.14608 24.2024C9.21632 24.2316 9.28508 24.2613 9.35264 24.2905C10.0236 24.5804 10.8587 24.9414 11.8286 24.0397C12.1971 23.6971 12.4733 23.5354 12.6748 23.5471C12.8357 23.556 13.026 23.6868 13.2403 23.9358C14.074 24.9046 14.0885 25.1632 13.7044 25.6095C13.2723 26.1114 13.0776 27.1435 13.6161 28.3175C13.9895 29.1312 14.5924 29.6171 15.2289 29.6171C15.9558 29.6171 16.4631 29.2828 16.9537 28.9595C17.3599 28.6918 17.7799 28.415 18.4152 28.2236C18.5099 28.1951 18.5805 28.1786 18.6316 28.1693C18.6341 28.1803 18.6364 28.191 18.6386 28.2011C18.7257 28.5965 18.8876 29.3324 20.053 29.6032C20.2216 29.6425 20.4023 29.6604 20.5918 29.6604C21.628 29.6603 22.9235 29.1266 23.8972 28.6348C24.1579 28.5032 24.2625 28.185 24.1308 27.9243C23.9991 27.6635 23.6809 27.5588 23.4203 27.6906Z" fill="#1E196B"/>
<path d="M35.1216 6.42473C34.6959 6.19046 34.4379 6.20005 33.9694 6.21747C33.8023 6.22367 33.5945 6.23136 33.3191 6.23136C33.3129 6.23136 33.3079 6.23108 33.3042 6.23079C33.2318 6.1401 33.1791 5.79088 33.1504 5.60041C33.11 5.33207 33.0681 5.05471 32.9635 4.81515C32.7458 4.31728 32.3611 4.21819 32.1253 4.20839C31.9809 4.06199 31.7976 3.43351 31.6864 3.05171C31.4716 2.3149 31.228 1.47972 30.7376 0.925708C29.9514 0.0377071 28.2549 -0.205379 27.2634 0.170428C26.7055 0.38185 26.3856 0.784948 26.3856 1.27634C26.3856 1.56068 26.4151 1.82309 26.441 2.05461C26.5101 2.66998 26.5518 3.04134 26.1203 3.54281C25.9288 3.76538 25.8065 3.75607 25.5112 3.73308C25.1008 3.70156 24.414 3.64824 23.9608 4.6488L23.9038 4.77439C23.4576 5.7571 23.1629 6.40632 23.5727 6.86809C23.954 7.29799 24.6051 7.0915 24.8833 7.00335C25.5572 6.78981 26.244 6.99242 26.4207 7.22585C26.4506 7.26541 26.5129 7.34764 26.3603 7.57937C26.2022 7.81956 26.2023 7.81977 25.9054 7.79361C25.6613 7.77231 25.3271 7.74319 24.8771 7.84488C24.3797 7.95736 23.8475 8.20616 23.2499 8.60545C22.4121 9.16525 21.9737 9.76503 21.5869 10.2942C21.2947 10.694 21.058 11.0177 20.7025 11.261C20.9926 10.5097 21.139 9.76947 21.139 9.04395C21.139 6.21465 18.8372 3.91284 16.0079 3.91284C14.771 3.91284 13.5762 4.35917 12.6436 5.16966C12.4231 5.36127 12.3997 5.69533 12.5913 5.91585C12.7829 6.13622 13.1169 6.15964 13.3375 5.9681C14.0776 5.32488 15.026 4.97058 16.0079 4.97058C18.2539 4.97058 20.0812 6.79785 20.0812 9.04388C20.0812 11.9949 17.0062 14.7117 16.0076 15.5159C15.0082 14.7125 11.9347 12.0007 11.9347 9.04388C11.9347 8.44339 12.0621 7.8654 12.3135 7.32591C12.4369 7.06118 12.3223 6.74651 12.0575 6.62317C11.7926 6.49969 11.478 6.61436 11.3547 6.87923C11.0459 7.54178 10.8867 8.24995 10.8784 8.98464C10.7535 8.96983 10.6347 8.96031 10.5257 8.95185C9.91307 8.90396 9.8027 8.89536 9.71786 8.36956C9.5099 7.08092 8.52429 5.23059 7.56514 4.77644C7.21669 4.61156 6.86113 4.61572 6.56381 4.78857C5.91283 5.16677 5.87115 5.94892 5.84069 6.52C5.83124 6.69644 5.81763 6.95159 5.7823 7.06837C5.70663 7.08438 5.62489 7.09764 5.53949 7.11146C4.70897 7.24637 3.88951 7.51646 3.78789 9.17053C3.74953 9.7945 3.58944 9.94619 3.3867 10.1382C3.05891 10.4487 2.76985 10.797 2.83282 11.6386C2.84827 11.8455 2.85067 11.8772 2.21802 12.0151C1.6621 12.1362 0.821917 12.3192 0.461413 13.199C-0.316786 15.0981 0.00683453 16.6619 0.56924 17.4922C0.730803 17.7307 1.06479 17.7952 1.30379 17.6335C1.54567 17.4697 1.60893 17.1408 1.44504 16.8989C0.939475 16.1525 0.937501 14.8268 1.44025 13.6001C1.58277 13.2522 1.91422 13.1639 2.4432 13.0487C3.01576 12.9239 3.97407 12.7151 3.88761 11.5597C3.85693 11.1498 3.92174 11.0884 4.11398 10.9063C4.46482 10.574 4.78456 10.1963 4.84359 9.23548C4.90191 8.28676 5.1548 8.24565 5.70895 8.15559C5.83603 8.135 5.96734 8.11364 6.1031 8.07985C6.82622 7.89974 6.86705 7.13487 6.89681 6.57635C6.91366 6.26062 6.93644 5.83334 7.07537 5.71705C7.17163 5.7466 7.49201 5.94441 7.91633 6.63192C8.29172 7.24009 8.58184 7.97048 8.67338 8.53803C8.89079 9.88526 9.78803 9.95536 10.4432 10.0064C10.6182 10.0201 10.797 10.0343 10.9723 10.0686C11.2305 11.4733 12.0133 12.9251 13.3097 14.398C14.4861 15.7346 15.6497 16.5786 15.6986 16.614C15.8812 16.7456 16.1344 16.7456 16.3171 16.614C16.366 16.5786 17.5295 15.7346 18.706 14.398C19.215 13.8197 19.6447 13.2447 19.9948 12.6744C21.3851 12.3618 21.9216 11.6288 22.4408 10.9183C22.7922 10.4377 23.1556 9.94055 23.8375 9.48492C24.91 8.76821 25.4109 8.81215 25.8133 8.84727C26.3199 8.89169 26.777 8.8704 27.244 8.16074C27.6019 7.61681 27.6093 7.04334 27.2641 6.58735C26.7684 5.93221 25.5821 5.67198 24.5637 5.99483C24.55 5.99913 24.5368 6.00322 24.524 6.0071C24.6127 5.77156 24.753 5.46247 24.867 5.21155L24.9243 5.08504C25.0716 4.75987 25.1057 4.76255 25.4296 4.78758C25.7854 4.81501 26.3811 4.86121 26.9221 4.23251C27.6544 3.38153 27.5682 2.61377 27.4922 1.93642C27.4681 1.72245 27.4433 1.50123 27.4418 1.27916C27.4564 1.25088 27.6006 1.12578 27.9963 1.07585C28.6428 0.994396 29.5483 1.1781 29.9455 1.62676C30.2788 2.00327 30.487 2.71751 30.6708 3.34768C30.937 4.26086 31.2121 5.20429 32.0048 5.26233C32.0469 5.37657 32.0821 5.60943 32.1045 5.75795C32.1852 6.29306 32.3353 7.28903 33.3191 7.28903C33.6142 7.28903 33.833 7.28092 34.0088 7.27436C34.4262 7.25892 34.4489 7.26167 34.6116 7.3513C34.8389 7.47648 34.9729 7.86293 34.9375 8.29128C34.9068 8.66194 34.7623 8.86511 34.7095 8.88316C34.6284 8.88048 34.5153 8.86299 34.3956 8.84451C33.9542 8.77618 33.3498 8.68288 32.8918 9.09881C32.5483 9.4108 32.4017 9.91777 32.4436 10.6488C32.4984 11.6038 32.4148 11.8853 32.378 11.9608C32.3117 11.9701 32.1699 11.9622 32.0629 11.9561C31.8292 11.9429 31.5384 11.9263 31.2059 11.9843C30.464 12.1137 29.8862 12.7957 29.3274 13.4553C28.9322 13.9219 28.4402 14.5026 28.1164 14.5237C27.9974 14.526 27.6382 14.3578 27.4237 14.2552C26.9581 14.0327 26.4769 13.8027 26.027 13.8914C25.3516 14.0246 24.9322 14.6546 24.9585 15.4963C24.9855 16.3594 25.5139 17.2998 26.4713 17.4272C27.0463 17.5037 27.4907 17.8016 27.5885 17.9489C27.5019 18.029 27.2749 18.1489 27.1183 18.2316C26.5801 18.516 25.7667 18.9457 25.6627 19.9031C25.635 20.1574 25.6271 20.5275 25.8761 20.805C26.1371 21.0961 26.5066 21.0964 26.7764 21.0966C27.1888 21.0969 27.4612 21.0971 27.7181 21.7174C28.3728 23.2974 27.2695 24.9322 26.5144 25.649C26.2684 25.8826 25.8935 26.177 25.4587 26.4782C25.2185 26.6445 25.1587 26.9741 25.3251 27.2142C25.4891 27.4511 25.824 27.512 26.061 27.3478C26.5459 27.0119 26.9545 26.6899 27.2426 26.4163C28.517 25.2065 29.4604 23.1591 28.6954 21.3125C28.1681 20.0399 27.2632 20.0392 26.7771 20.0389C26.7555 20.0389 26.7337 20.0388 26.7121 20.0387C26.7128 20.0315 26.7135 20.0245 26.7142 20.0174C26.7546 19.6454 27.0804 19.448 27.6123 19.167C28.0552 18.933 28.5132 18.6911 28.6344 18.1917C28.6822 17.9948 28.6908 17.6897 28.4607 17.3534C28.0816 16.7996 27.2584 16.4649 26.6107 16.3787C26.2413 16.3295 26.0285 15.8705 26.0157 15.4633C26.0083 15.2281 26.0728 14.9606 26.228 14.9298C26.3541 14.9174 26.7385 15.1003 26.9674 15.2097C27.3925 15.413 27.7939 15.6051 28.1849 15.5794C28.9569 15.5291 29.5556 14.8225 30.1344 14.1392C30.551 13.6473 31.0233 13.09 31.3874 13.0265C31.5999 12.9895 31.8048 13.0012 32.0029 13.0123C32.3518 13.0319 32.7861 13.0568 33.1187 12.7239C33.4657 12.3767 33.5689 11.7979 33.4995 10.5884C33.467 10.0226 33.5889 9.89478 33.6028 9.88202C33.6872 9.80536 34.0293 9.8584 34.2339 9.88999C34.3793 9.91249 34.5296 9.93569 34.6742 9.94055C35.2458 9.95981 35.719 9.5359 35.9117 8.83485C36.1403 8.00313 35.941 6.87578 35.1216 6.42473Z" fill="#1E196B"/>
<path d="M18.3094 9.21682C18.3094 7.94772 17.2769 6.91522 16.0078 6.91522C14.7388 6.91522 13.7063 7.94772 13.7063 9.21682C13.7063 10.4859 14.7388 11.5184 16.0078 11.5184C17.2769 11.5183 18.3094 10.4859 18.3094 9.21682ZM14.7641 9.21682C14.7641 8.531 15.322 7.97304 16.0078 7.97304C16.6937 7.97304 17.2516 8.531 17.2516 9.21682C17.2516 9.90263 16.6936 10.4606 16.0078 10.4606C15.322 10.4605 14.7641 9.90256 14.7641 9.21682Z" fill="#BFCD30"/>
</svg>
