<svg width="38" height="38" viewBox="0 0 38 38" fill="none" xmlns="http://www.w3.org/2000/svg">
<rect width="38" height="38" fill="white"/>
<path d="M8.33594 20.649C8.48997 20.649 8.64127 20.587 8.75021 20.478C8.85916 20.3684 8.92188 20.2178 8.92188 20.063C8.92188 19.909 8.85916 19.7577 8.75021 19.6488C8.64127 19.5398 8.48997 19.4771 8.33594 19.4771C8.1819 19.4771 8.03061 19.5398 7.92166 19.6488C7.81271 19.7577 7.75 19.909 7.75 20.063C7.75 20.2178 7.81271 20.3688 7.92166 20.478C8.03061 20.587 8.1819 20.649 8.33594 20.649Z" fill="#BFCD30"/>
<path d="M33.6976 12.5418L28.3425 9.58122C28.0594 9.42443 27.7028 9.52743 27.5462 9.81056C27.3897 10.0937 27.4924 10.4503 27.7756 10.6068L32.8281 13.4001V33.3279H30.25V14.9295C30.25 14.6059 29.9877 14.3436 29.6641 14.3436H8.33594C8.0123 14.3436 7.75 14.6059 7.75 14.9295V17.7193C7.75 18.043 8.0123 18.3053 8.33594 18.3053C8.65958 18.3053 8.92188 18.043 8.92188 17.7193V15.5154H29.0781V33.3279H26.6247V27.4686C26.6247 26.8224 26.099 26.2967 25.4529 26.2967H23.1091V20.4373C23.1091 19.7912 22.5834 19.2654 21.9372 19.2654H16.0779C15.4315 19.2654 14.906 19.7912 14.906 20.4373V26.2967H12.5547C11.9086 26.2967 11.3828 26.8224 11.3828 27.4686V33.3279H8.92188V22.4068C8.92188 22.0832 8.65958 21.8209 8.33594 21.8209C8.0123 21.8209 7.75 22.0832 7.75 22.4068V33.3279H5.17188V13.4001L19 5.75523L23.6731 8.33885C23.9562 8.4954 24.3128 8.39264 24.4694 8.10951C24.6259 7.82638 24.5231 7.46978 24.24 7.31323L19.2836 4.57306C19.1071 4.47532 18.8929 4.47532 18.7164 4.57306L4.30235 12.5418C4.11581 12.6448 4 12.8412 4 13.0545V33.9139C4 34.2375 4.2623 34.4998 4.58594 34.4998H33.4141C33.7377 34.4998 34 34.2375 34 33.9139V13.0545C34 12.8412 33.8842 12.6448 33.6976 12.5418ZM21.9372 27.4686H23.1091V28.6404H21.9372V27.4686ZM19.5859 20.4373V21.6092H18.4141V20.4373H19.5859ZM16.0779 20.4373H17.2422V22.1951C17.2422 22.5188 17.5045 22.7811 17.8281 22.7811H20.1719C20.4955 22.7811 20.7578 22.5188 20.7578 22.1951V20.4373H21.9372L21.9379 26.2967C21.9379 26.2967 21.9377 26.2967 21.9372 26.2967H16.0779V20.4373ZM16.0779 27.4686V28.6404H14.906V27.4686H16.0779ZM12.5547 33.3279V27.4686H13.7341V29.2264C13.7341 29.55 13.9964 29.8123 14.3201 29.8123H16.6638C16.9872 29.8123 17.2497 29.55 17.2497 29.2264V27.4686H18.4141L18.4147 33.3279C18.4147 33.3279 18.4145 33.3279 18.4141 33.3279H12.5547ZM19.5935 33.3279V27.4686H20.7654V29.2264C20.7654 29.55 21.0277 29.8123 21.3513 29.8123H23.6951C24.0185 29.8123 24.281 29.55 24.281 29.2264V27.4686H25.4529L25.4536 33.3279C25.4536 33.3279 25.4533 33.3279 25.4529 33.3279H19.5935Z" fill="#1E196B"/>
<path d="M26.0079 9.54614C26.1619 9.54614 26.313 9.48343 26.4222 9.37448C26.5311 9.2653 26.5938 9.11424 26.5938 8.96021C26.5938 8.80594 26.5311 8.65488 26.4222 8.54593C26.313 8.43698 26.1619 8.37427 26.0079 8.37427C25.8536 8.37427 25.7026 8.43698 25.5936 8.54593C25.4847 8.65488 25.422 8.80594 25.422 8.96021C25.422 9.11424 25.4847 9.2653 25.5936 9.37448C25.7026 9.48343 25.8536 9.54614 26.0079 9.54614Z" fill="#BFCD30"/>
<path d="M16.5391 10.4766C16.5391 11.8336 17.643 12.9375 19 12.9375C20.357 12.9375 21.4609 11.8336 21.4609 10.4766C21.4609 9.11952 20.357 8.01562 19 8.01562C17.643 8.01562 16.5391 9.11952 16.5391 10.4766ZM20.2891 10.4766C20.2891 11.1872 19.7109 11.7656 19 11.7656C18.2891 11.7656 17.7109 11.1872 17.7109 10.4766C17.7109 9.76566 18.2891 9.1875 19 9.1875C19.7109 9.1875 20.2891 9.76566 20.2891 10.4766Z" fill="#BFCD30"/>
</svg>
