<svg width="38" height="38" viewBox="0 0 38 38" fill="none" xmlns="http://www.w3.org/2000/svg">
<rect width="38" height="38" fill="white"/>
<path fill-rule="evenodd" clip-rule="evenodd" d="M14.5777 10.4522C16.6012 8.66777 19.2581 7.58319 22.1667 7.58319C28.5016 7.58319 33.6458 12.7274 33.6458 19.0624C33.6458 25.3973 28.5016 30.5415 22.1667 30.5415C19.2581 30.5415 16.6012 29.4569 14.5777 27.6725C14.0869 27.2387 13.3348 27.2846 12.901 27.777C12.4672 28.2679 12.5147 29.0184 13.0055 29.4522C15.4486 31.6087 18.6564 32.9165 22.1667 32.9165C29.8126 32.9165 36.0208 26.7083 36.0208 19.0624C36.0208 11.4164 29.8126 5.20819 22.1667 5.20819C18.6564 5.20819 15.4486 6.51602 13.0055 8.67252C12.5147 9.10636 12.4672 9.85686 12.901 10.3477C13.3348 10.8401 14.0869 10.886 14.5777 10.4522Z" fill="#1E196B"/>
<path fill-rule="evenodd" clip-rule="evenodd" d="M20.3458 12.0957V18.429C20.3458 18.7441 20.4709 19.0465 20.6942 19.2682L25.7608 24.3349C26.2232 24.7988 26.9768 24.7988 27.4392 24.3349C27.9031 23.8725 27.9031 23.1189 27.4392 22.6565L22.7208 17.9366V12.0957C22.7208 11.4402 22.1888 10.9082 21.5333 10.9082C20.8778 10.9082 20.3458 11.4402 20.3458 12.0957Z" fill="#BFCD30"/>
<path fill-rule="evenodd" clip-rule="evenodd" d="M3.16666 14.7082H12.6667C13.3222 14.7082 13.8542 14.1762 13.8542 13.5207C13.8542 12.8652 13.3222 12.3332 12.6667 12.3332H3.16666C2.51116 12.3332 1.97916 12.8652 1.97916 13.5207C1.97916 14.1762 2.51116 14.7082 3.16666 14.7082Z" fill="#BFCD30"/>
<path fill-rule="evenodd" clip-rule="evenodd" d="M4.75 20.2499H14.25C14.9055 20.2499 15.4375 19.7179 15.4375 19.0624C15.4375 18.4069 14.9055 17.8749 14.25 17.8749H4.75C4.0945 17.8749 3.5625 18.4069 3.5625 19.0624C3.5625 19.7179 4.0945 20.2499 4.75 20.2499Z" fill="#BFCD30"/>
<path fill-rule="evenodd" clip-rule="evenodd" d="M6.33333 25.7915H15.8333C16.4888 25.7915 17.0208 25.2595 17.0208 24.604C17.0208 23.9485 16.4888 23.4165 15.8333 23.4165H6.33333C5.67783 23.4165 5.14583 23.9485 5.14583 24.604C5.14583 25.2595 5.67783 25.7915 6.33333 25.7915Z" fill="#BFCD30"/>
</svg>
