<svg width="60" height="60" viewBox="0 0 60 60" fill="none" xmlns="http://www.w3.org/2000/svg">
<rect width="60" height="60" fill="white"/>
<g clip-path="url(#clip0_73_120)">
<path d="M12.9925 34.3166C12.0626 34.8785 11.4375 35.911 11.4375 37.0898C11.4375 38.8668 12.8569 40.3125 14.6016 40.3125C15.9765 40.3125 17.1488 39.4143 17.5842 38.1641H25.7812C27.5259 38.1641 28.9453 39.6097 28.9453 41.3867C28.9453 43.1637 27.5259 44.6094 25.7812 44.6094H13.125C10.2172 44.6094 7.85156 47.0188 7.85156 49.9805C7.85156 52.9421 10.2172 55.3516 13.125 55.3516H23.6719C24.2544 55.3516 24.7266 54.8706 24.7266 54.2773C24.7266 53.6841 24.2544 53.2031 23.6719 53.2031H13.125C11.3803 53.2031 9.96094 51.7574 9.96094 49.9805C9.96094 48.2035 11.3803 46.7578 13.125 46.7578H25.7812C28.689 46.7578 31.0547 44.3483 31.0547 41.3867C31.0547 38.4251 28.689 36.0156 25.7812 36.0156H17.5842C17.3348 35.2993 16.8435 34.699 16.2106 34.3166L24.2661 20.855C25.5333 18.9149 26.2031 16.6543 26.2031 14.3164C26.2031 7.80084 20.9987 2.5 14.6016 2.5C8.20446 2.5 3 7.80084 3 14.3164C3 16.6543 3.66983 18.9149 4.93704 20.855L12.9925 34.3166ZM14.6016 38.1641C14.02 38.1641 13.5469 37.6822 13.5469 37.0898C13.5469 36.4975 14.02 36.0156 14.6016 36.0156C15.1831 36.0156 15.6562 36.4975 15.6562 37.0898C15.6562 37.6822 15.1831 38.1641 14.6016 38.1641ZM14.6016 4.64844C19.8356 4.64844 24.0938 8.98549 24.0938 14.3164C24.0938 16.2358 23.5425 18.0907 22.4996 19.6805C22.4915 19.6929 22.4836 19.7054 22.476 19.7182L14.6016 32.8773C14.6016 32.8773 6.71166 19.6929 6.70354 19.6805C5.66066 18.0907 5.10938 16.2358 5.10938 14.3164C5.10938 8.98549 9.36757 4.64844 14.6016 4.64844Z" fill="#BFCD30"/>
<path d="M14.6016 19.6875C17.5093 19.6875 19.875 17.278 19.875 14.3164C19.875 11.3548 17.5093 8.94531 14.6016 8.94531C11.6938 8.94531 9.32812 11.3548 9.32812 14.3164C9.32812 17.278 11.6938 19.6875 14.6016 19.6875ZM14.6016 11.0938C16.3462 11.0938 17.7656 12.5394 17.7656 14.3164C17.7656 16.0934 16.3462 17.5391 14.6016 17.5391C12.8569 17.5391 11.4375 16.0934 11.4375 14.3164C11.4375 12.5394 12.8569 11.0938 14.6016 11.0938Z" fill="#BFCD30"/>
<path d="M45.3984 20.332C39.0013 20.332 33.7969 25.6329 33.7969 32.1484C33.7969 34.4901 34.4688 36.7542 35.74 38.6962L43.7655 51.5181C43.144 51.9011 42.6622 52.4958 42.4159 53.2031H33.1641C32.5816 53.2031 32.1094 53.6841 32.1094 54.2773C32.1094 54.8706 32.5816 55.3516 33.1641 55.3516H42.4158C42.8512 56.6018 44.0234 57.5 45.3984 57.5C47.1431 57.5 48.5625 56.0543 48.5625 54.2773C48.5625 53.1085 47.9484 52.0831 47.0315 51.5181L55.0569 38.6962C56.3281 36.7542 57 34.4901 57 32.1484C57 25.6329 51.7955 20.332 45.3984 20.332ZM45.3984 55.3516C44.8169 55.3516 44.3438 54.8697 44.3438 54.2773C44.3438 53.685 44.8169 53.2031 45.3984 53.2031C45.98 53.2031 46.4531 53.685 46.4531 54.2773C46.4531 54.8697 45.98 55.3516 45.3984 55.3516ZM53.2965 37.5125C53.2924 37.519 45.3984 50.1305 45.3984 50.1305C45.3984 50.1305 37.5045 37.5189 37.5004 37.5125C36.4575 35.9227 35.9062 34.0679 35.9062 32.1484C35.9062 26.8175 40.1644 22.4805 45.3984 22.4805C50.6324 22.4805 54.8906 26.8175 54.8906 32.1484C54.8906 34.0679 54.3393 35.9227 53.2965 37.5125Z" fill="#1E196B"/>
<path d="M45.3984 26.7773C42.4907 26.7773 40.125 29.1868 40.125 32.1484C40.125 35.1101 42.4907 37.5195 45.3984 37.5195C48.3062 37.5195 50.6719 35.1101 50.6719 32.1484C50.6719 29.1868 48.3062 26.7773 45.3984 26.7773ZM45.3984 35.3711C43.6538 35.3711 42.2344 33.9254 42.2344 32.1484C42.2344 30.3715 43.6538 28.9258 45.3984 28.9258C47.1431 28.9258 48.5625 30.3715 48.5625 32.1484C48.5625 33.9254 47.1431 35.3711 45.3984 35.3711Z" fill="#1E196B"/>
<path d="M28.418 55.3516C29.0005 55.3516 29.4727 54.8706 29.4727 54.2773C29.4727 53.6841 29.0005 53.2031 28.418 53.2031C27.8355 53.2031 27.3633 53.6841 27.3633 54.2773C27.3633 54.8706 27.8355 55.3516 28.418 55.3516Z" fill="#1E196B"/>
</g>
<defs>
<clipPath id="clip0_73_120">
<rect width="54" height="55" fill="white" transform="translate(3 2.5)"/>
</clipPath>
</defs>
</svg>
